<?xml version="1.0" encoding="UTF-8" standalone="no"?>
<svg
   xmlns:dc="http://purl.org/dc/elements/1.1/"
   xmlns:cc="http://creativecommons.org/ns#"
   xmlns:rdf="http://www.w3.org/1999/02/22-rdf-syntax-ns#"
   xmlns:svg="http://www.w3.org/2000/svg"
   xmlns="http://www.w3.org/2000/svg"
   xmlns:sodipodi="http://sodipodi.sourceforge.net/DTD/sodipodi-0.dtd"
   xmlns:inkscape="http://www.inkscape.org/namespaces/inkscape"
   height="48"
   width="48"
   version="1.1"
   id="svg3763"
   sodipodi:docname="info.svg"
   inkscape:version="0.92.5 (2060ec1f9f, 2020-04-08)">
  <metadata
     id="metadata3769">
    <rdf:RDF>
      <cc:Work
         rdf:about="">
        <dc:format>image/svg+xml</dc:format>
        <dc:type
           rdf:resource="http://purl.org/dc/dcmitype/StillImage" />
      </cc:Work>
    </rdf:RDF>
  </metadata>
  <defs
     id="defs3767" />
  <sodipodi:namedview
     pagecolor="#ffffff"
     bordercolor="#666666"
     borderopacity="1"
     objecttolerance="10"
     gridtolerance="10"
     guidetolerance="10"
     inkscape:pageopacity="0"
     inkscape:pageshadow="2"
     inkscape:window-width="1880"
     inkscape:window-height="1055"
     id="namedview3765"
     showgrid="false"
     inkscape:zoom="18.0625"
     inkscape:cx="14.366782"
     inkscape:cy="24"
     inkscape:window-x="40"
     inkscape:window-y="0"
     inkscape:window-maximized="1"
     inkscape:current-layer="svg3763" />
  <path
     d="M23.2 33.1h1.75V22H23.2Zm.8-13.9q.5 0 .825-.325.325-.325.325-.825 0-.55-.325-.85-.325-.3-.825-.3-.55 0-.85.3-.3.3-.3.8 0 .55.325.875.325.325.825.325Zm0 23q-3.8 0-7.075-1.45-3.275-1.45-5.75-3.9T7.25 31.1Q5.8 27.8 5.8 24t1.45-7.1q1.45-3.3 3.925-5.775 2.475-2.475 5.75-3.9Q20.2 5.8 24 5.8q3.75 0 7.075 1.425t5.8 3.9q2.475 2.475 3.9 5.8Q42.2 20.25 42.2 24q0 3.8-1.425 7.075-1.425 3.275-3.9 5.75-2.475 2.475-5.8 3.925Q27.75 42.2 24 42.2Zm.05-1.75q6.8 0 11.6-4.8t4.8-11.7q0-6.8-4.8-11.6T24 7.55q-6.85 0-11.65 4.8-4.8 4.8-4.8 11.65 0 6.85 4.8 11.65 4.8 4.8 11.7 4.8ZM24 24Z"
     id="path3761"
     style="fill:#c7cacc;fill-opacity:1" />
</svg>
